<svg xmlns="http://www.w3.org/2000/svg" xmlns:xlink="http://www.w3.org/1999/xlink" xmlns:svgjs="http://svgjs.dev/svgjs" version="1.1" viewBox="203.16 0 1588.28 1588.28"><g transform="matrix(1,0,0,1,-2.70536207619557,-3.7193548387097053)"><svg xmlns="http://www.w3.org/2000/svg" xmlns:xlink="http://www.w3.org/1999/xlink" viewBox="0 0 215 248" data-background-color="#ffffff" preserveAspectRatio="xMidYMid meet" height="2306" width="2000"><g id="tight-bounds" transform="matrix(1,0,0,1,0.2908264231910209,0.4000000000000057)"><svg viewBox="0 0 214.41834715361796 247.2" height="247.2" width="214.41834715361796"><g><svg viewBox="0 0 395.52 455.9896356721368" height="247.2" width="214.41834715361796"><g transform="matrix(1,0,0,1,40.218574162367645,0)"><svg viewBox="0 0 315.0828516752647 315.0828516752647" height="315.0828516752647" width="315.0828516752647"><g><svg/></g><g id="icon-0"><svg viewBox="0 0 315.0828516752647 315.0828516752647" height="315.0828516752647" width="315.0828516752647"><g><path transform="scale(3.15083,3.15083)" d="M30 100c-16.569 0-30-13.431-30-30v-40c0-16.569 13.431-30 30-30h40c16.569 0 30 13.431 30 30v40c0 16.569-13.431 30-30 30z" fill="#0074b7" fill-rule="nonzero" stroke="none" stroke-width="1" stroke-linecap="butt" stroke-linejoin="miter" stroke-miterlimit="10" stroke-dasharray="" stroke-dashoffset="0" font-family="none" font-weight="none" font-size="none" text-anchor="none" style="mix-blend-mode: normal" data-fill-palette-color="accent"/></g><g transform="matrix(1,0,0,1,63.01657033505293,80.03104432551723)"><svg viewBox="0 0 189.04971100515883 155.02076302423023" height="155.02076302423023" width="189.04971100515883"><g><svg xmlns="http://www.w3.org/2000/svg" xmlns:xlink="http://www.w3.org/1999/xlink" version="1.1" x="0" y="0" viewBox="0 18 100 82" enable-background="new 0 0 100 100" xml:space="preserve" height="155.02076302423023" width="189.04971100515883" class="icon-dxe-0" data-fill-palette-color="quaternary" id="dxe-0"><path fill="#ffffff" d="M100 45.5C100 42.475 97.525 40 94.5 40H87.923L83.154 27.6C81.969 24.52 78.404 21.258 75.23 20.351 75.23 20.352 67 18 50 18S24.769 20.352 24.769 20.352C21.596 21.259 18.031 24.52 16.846 27.601L12.077 40H5.5C2.475 40 0 42.475 0 45.5S2.475 51 5.5 51H7.846L6.154 55.4C4.969 58.479 4 63.7 4 67V93C4 96.85 7.15 100 11 100S18 96.85 18 93V89H82V93C82 96.85 85.15 100 89 100S96 96.85 96 93V67C96 63.7 95.03 58.479 93.846 55.4L92.153 51H94.5C97.525 51 100 48.525 100 45.5M17.691 47.124L23.308 31.877C23.689 30.845 24.9 30 26 30H74C75.1 30 76.312 30.845 76.691 31.876L82.308 47.123C82.688 48.155 82.1 49 81 49H19C17.9 49 17.311 48.155 17.691 47.124M17.5 72C14.462 72 12 69.535 12 66.5S14.462 61 17.5 61 23 63.465 23 66.5 20.537 72 17.5 72M82.5 72A5.5 5.5 0 1 1 82.5 61 5.5 5.5 0 1 1 82.5 72" data-fill-palette-color="quaternary"/></svg></g></svg></g></svg></g></svg></g><g/></svg></g><defs/></svg><rect width="214.41834715361796" height="247.2" fill="none" stroke="none" visibility="hidden"/></g></svg></g></svg>